<?xml version="1.0" standalone="no"?>
<svg viewBox="0 0 200 200" xmlns="http://www.w3.org/2000/svg">
  <path fill="#233554" d="M47.6,-71.3C62.1,-64.9,74.3,-52.2,79.1,-37.4C83.9,-22.6,81.2,-5.6,76.4,9.2C71.5,24.1,64.3,36.8,55.9,50.7C47.4,64.6,37.6,79.7,23.7,86.5C9.7,93.3,-8.4,91.8,-25.6,86.9C-42.8,82,-59.1,73.7,-69.9,60.8C-80.8,47.9,-86.1,30.5,-88.2,13C-90.2,-4.6,-88.9,-22.3,-81.9,-37.3C-74.8,-52.2,-62,-64.5,-47.5,-70.8C-32.9,-77.2,-16.4,-77.7,0.1,-77.8C16.6,-78,33.2,-77.8,47.6,-71.3Z" transform="translate(100 100)" />
</svg>
